<svg xmlns="http://www.w3.org/2000/svg" width="1200" height="800" viewBox="0 0 1200 800">
<rect width="1200" height="800" fill="white"/>
<g font-family="sans-serif" fill="#172b4d">
<text x="30.00" y="32.00" font-size="24">4090 / Qwen3-8B: three scheduling policies</text>
<text x="30.00" y="57.00" font-size="14">Actual measured round 1; common time axis. Orange = prefill, blue = decode, purple = mixed.</text>
<text x="30.00" y="79.00" font-size="14">Green ticks = A output tokens; red bracket = largest A output gap. Dashed line = B planned arrival.</text>
<text x="30.00" y="117.00" font-size="20">prefill_first</text>
<text x="185.00" y="141.00" font-size="14">A max gap 452.6 ms | B TTFT 451.1 ms | total 5.007 s</text>
<path d="M248.00,151 V270" stroke="#ddd"/>
<text x="235.00" y="291.00" font-size="12">0.5s</text>
<path d="M374.00,151 V270" stroke="#ddd"/>
<text x="361.00" y="291.00" font-size="12">0.6s</text>
<path d="M500.00,151 V270" stroke="#ddd"/>
<text x="487.00" y="291.00" font-size="12">0.7s</text>
<path d="M626.00,151 V270" stroke="#ddd"/>
<text x="613.00" y="291.00" font-size="12">0.8s</text>
<path d="M752.00,151 V270" stroke="#ddd"/>
<text x="739.00" y="291.00" font-size="12">0.9s</text>
<path d="M878.00,151 V270" stroke="#ddd"/>
<text x="865.00" y="291.00" font-size="12">1.0s</text>
<path d="M1004.00,151 V270" stroke="#ddd"/>
<text x="991.00" y="291.00" font-size="12">1.1s</text>
<path d="M1130.00,151 V270" stroke="#ddd"/>
<text x="1117.00" y="291.00" font-size="12">1.2s</text>
<path d="M248.00,151 V270" stroke="#777" stroke-dasharray="4 4"/>
<text x="30.00" y="184.00" font-size="14">Engine steps</text>
<rect x="185.00" y="162.00" width="18.68" height="28" fill="#4185c4"/>
<rect x="203.69" y="162.00" width="21.93" height="28" fill="#4185c4"/>
<rect x="225.63" y="162.00" width="22.00" height="28" fill="#4185c4"/>
<rect x="247.65" y="162.00" width="22.20" height="28" fill="#4185c4"/>
<rect x="269.97" y="162.00" width="62.08" height="28" fill="#e9a23b"/>
<rect x="332.07" y="162.00" width="64.44" height="28" fill="#e9a23b"/>
<rect x="396.53" y="162.00" width="66.60" height="28" fill="#e9a23b"/>
<rect x="463.14" y="162.00" width="68.54" height="28" fill="#e9a23b"/>
<rect x="531.70" y="162.00" width="69.19" height="28" fill="#e9a23b"/>
<rect x="600.92" y="162.00" width="70.29" height="28" fill="#e9a23b"/>
<rect x="671.22" y="162.00" width="71.74" height="28" fill="#e9a23b"/>
<rect x="742.98" y="162.00" width="73.36" height="28" fill="#e9a23b"/>
<rect x="816.36" y="162.00" width="23.74" height="28" fill="#4185c4"/>
<rect x="840.12" y="162.00" width="23.61" height="28" fill="#4185c4"/>
<rect x="863.74" y="162.00" width="23.55" height="28" fill="#4185c4"/>
<rect x="887.30" y="162.00" width="23.49" height="28" fill="#4185c4"/>
<rect x="910.80" y="162.00" width="23.51" height="28" fill="#4185c4"/>
<rect x="934.32" y="162.00" width="23.53" height="28" fill="#4185c4"/>
<rect x="957.86" y="162.00" width="23.51" height="28" fill="#4185c4"/>
<rect x="981.38" y="162.00" width="23.51" height="28" fill="#4185c4"/>
<rect x="1004.90" y="162.00" width="23.53" height="28" fill="#4185c4"/>
<rect x="1028.44" y="162.00" width="23.48" height="28" fill="#4185c4"/>
<rect x="1051.94" y="162.00" width="23.48" height="28" fill="#4185c4"/>
<rect x="1075.43" y="162.00" width="23.48" height="28" fill="#4185c4"/>
<rect x="1098.92" y="162.00" width="23.49" height="28" fill="#4185c4"/>
<rect x="1122.41" y="162.00" width="7.59" height="28" fill="#4185c4"/>
<text x="30.00" y="224.00" font-size="14">A outputs</text>
<rect x="203.68" y="203.00" width="1.80" height="25" fill="#23845d"/>
<rect x="225.62" y="203.00" width="1.80" height="25" fill="#23845d"/>
<rect x="247.63" y="203.00" width="1.80" height="25" fill="#23845d"/>
<rect x="269.86" y="203.00" width="1.80" height="25" fill="#23845d"/>
<rect x="840.10" y="203.00" width="1.80" height="25" fill="#23845d"/>
<rect x="863.73" y="203.00" width="1.80" height="25" fill="#23845d"/>
<rect x="887.29" y="203.00" width="1.80" height="25" fill="#23845d"/>
<rect x="910.79" y="203.00" width="1.80" height="25" fill="#23845d"/>
<rect x="934.31" y="203.00" width="1.80" height="25" fill="#23845d"/>
<rect x="957.85" y="203.00" width="1.80" height="25" fill="#23845d"/>
<rect x="981.37" y="203.00" width="1.80" height="25" fill="#23845d"/>
<rect x="1004.89" y="203.00" width="1.80" height="25" fill="#23845d"/>
<rect x="1028.43" y="203.00" width="1.80" height="25" fill="#23845d"/>
<rect x="1051.93" y="203.00" width="1.80" height="25" fill="#23845d"/>
<rect x="1075.42" y="203.00" width="1.80" height="25" fill="#23845d"/>
<rect x="1098.90" y="203.00" width="1.80" height="25" fill="#23845d"/>
<rect x="1122.40" y="203.00" width="1.80" height="25" fill="#23845d"/>
<path d="M269.86,234 V244 H840.10 V234" fill="none" stroke="#c93939" stroke-width="2"/>
<text x="529.98" y="265.00" font-size="12">452.6 ms</text>
<text x="30.00" y="327.00" font-size="20">interleave</text>
<text x="185.00" y="351.00" font-size="14">A max gap 76.4 ms | B TTFT 567.8 ms | total 5.000 s</text>
<path d="M248.00,361 V480" stroke="#ddd"/>
<text x="235.00" y="501.00" font-size="12">0.5s</text>
<path d="M374.00,361 V480" stroke="#ddd"/>
<text x="361.00" y="501.00" font-size="12">0.6s</text>
<path d="M500.00,361 V480" stroke="#ddd"/>
<text x="487.00" y="501.00" font-size="12">0.7s</text>
<path d="M626.00,361 V480" stroke="#ddd"/>
<text x="613.00" y="501.00" font-size="12">0.8s</text>
<path d="M752.00,361 V480" stroke="#ddd"/>
<text x="739.00" y="501.00" font-size="12">0.9s</text>
<path d="M878.00,361 V480" stroke="#ddd"/>
<text x="865.00" y="501.00" font-size="12">1.0s</text>
<path d="M1004.00,361 V480" stroke="#ddd"/>
<text x="991.00" y="501.00" font-size="12">1.1s</text>
<path d="M1130.00,361 V480" stroke="#ddd"/>
<text x="1117.00" y="501.00" font-size="12">1.2s</text>
<path d="M248.00,361 V480" stroke="#777" stroke-dasharray="4 4"/>
<text x="30.00" y="394.00" font-size="14">Engine steps</text>
<rect x="185.00" y="372.00" width="18.99" height="28" fill="#4185c4"/>
<rect x="204.00" y="372.00" width="21.92" height="28" fill="#4185c4"/>
<rect x="225.93" y="372.00" width="21.93" height="28" fill="#4185c4"/>
<rect x="247.86" y="372.00" width="21.92" height="28" fill="#4185c4"/>
<rect x="269.91" y="372.00" width="62.18" height="28" fill="#e9a23b"/>
<rect x="332.10" y="372.00" width="21.96" height="28" fill="#4185c4"/>
<rect x="354.07" y="372.00" width="64.06" height="28" fill="#e9a23b"/>
<rect x="418.14" y="372.00" width="22.10" height="28" fill="#4185c4"/>
<rect x="440.26" y="372.00" width="65.89" height="28" fill="#e9a23b"/>
<rect x="506.16" y="372.00" width="22.08" height="28" fill="#4185c4"/>
<rect x="528.25" y="372.00" width="65.87" height="28" fill="#e9a23b"/>
<rect x="594.13" y="372.00" width="22.04" height="28" fill="#4185c4"/>
<rect x="616.18" y="372.00" width="68.31" height="28" fill="#e9a23b"/>
<rect x="684.51" y="372.00" width="22.09" height="28" fill="#4185c4"/>
<rect x="706.62" y="372.00" width="69.26" height="28" fill="#e9a23b"/>
<rect x="775.88" y="372.00" width="22.05" height="28" fill="#4185c4"/>
<rect x="797.94" y="372.00" width="70.68" height="28" fill="#e9a23b"/>
<rect x="868.64" y="372.00" width="22.21" height="28" fill="#4185c4"/>
<rect x="890.86" y="372.00" width="72.59" height="28" fill="#e9a23b"/>
<rect x="963.46" y="372.00" width="23.68" height="28" fill="#4185c4"/>
<rect x="987.15" y="372.00" width="23.52" height="28" fill="#4185c4"/>
<rect x="1010.68" y="372.00" width="23.56" height="28" fill="#4185c4"/>
<rect x="1034.26" y="372.00" width="23.54" height="28" fill="#4185c4"/>
<rect x="1057.81" y="372.00" width="23.47" height="28" fill="#4185c4"/>
<rect x="1081.28" y="372.00" width="23.49" height="28" fill="#4185c4"/>
<rect x="1104.78" y="372.00" width="23.48" height="28" fill="#4185c4"/>
<rect x="1128.27" y="372.00" width="1.73" height="28" fill="#4185c4"/>
<text x="30.00" y="434.00" font-size="14">A outputs</text>
<rect x="203.99" y="413.00" width="1.80" height="25" fill="#23845d"/>
<rect x="225.92" y="413.00" width="1.80" height="25" fill="#23845d"/>
<rect x="247.86" y="413.00" width="1.80" height="25" fill="#23845d"/>
<rect x="269.79" y="413.00" width="1.80" height="25" fill="#23845d"/>
<rect x="354.06" y="413.00" width="1.80" height="25" fill="#23845d"/>
<rect x="440.25" y="413.00" width="1.80" height="25" fill="#23845d"/>
<rect x="528.24" y="413.00" width="1.80" height="25" fill="#23845d"/>
<rect x="616.17" y="413.00" width="1.80" height="25" fill="#23845d"/>
<rect x="706.60" y="413.00" width="1.80" height="25" fill="#23845d"/>
<rect x="797.93" y="413.00" width="1.80" height="25" fill="#23845d"/>
<rect x="890.86" y="413.00" width="1.80" height="25" fill="#23845d"/>
<rect x="987.14" y="413.00" width="1.80" height="25" fill="#23845d"/>
<rect x="1010.66" y="413.00" width="1.80" height="25" fill="#23845d"/>
<rect x="1034.24" y="413.00" width="1.80" height="25" fill="#23845d"/>
<rect x="1057.80" y="413.00" width="1.80" height="25" fill="#23845d"/>
<rect x="1081.28" y="413.00" width="1.80" height="25" fill="#23845d"/>
<rect x="1104.78" y="413.00" width="1.80" height="25" fill="#23845d"/>
<rect x="1128.26" y="413.00" width="1.80" height="25" fill="#23845d"/>
<path d="M890.86,444 V454 H987.14 V444" fill="none" stroke="#c93939" stroke-width="2"/>
<text x="914.00" y="475.00" font-size="12">76.4 ms</text>
<text x="30.00" y="537.00" font-size="20">mixed</text>
<text x="185.00" y="561.00" font-size="14">A max gap 58.9 ms | B TTFT 485.8 ms | total 4.906 s</text>
<path d="M248.00,571 V690" stroke="#ddd"/>
<text x="235.00" y="711.00" font-size="12">0.5s</text>
<path d="M374.00,571 V690" stroke="#ddd"/>
<text x="361.00" y="711.00" font-size="12">0.6s</text>
<path d="M500.00,571 V690" stroke="#ddd"/>
<text x="487.00" y="711.00" font-size="12">0.7s</text>
<path d="M626.00,571 V690" stroke="#ddd"/>
<text x="613.00" y="711.00" font-size="12">0.8s</text>
<path d="M752.00,571 V690" stroke="#ddd"/>
<text x="739.00" y="711.00" font-size="12">0.9s</text>
<path d="M878.00,571 V690" stroke="#ddd"/>
<text x="865.00" y="711.00" font-size="12">1.0s</text>
<path d="M1004.00,571 V690" stroke="#ddd"/>
<text x="991.00" y="711.00" font-size="12">1.1s</text>
<path d="M1130.00,571 V690" stroke="#ddd"/>
<text x="1117.00" y="711.00" font-size="12">1.2s</text>
<path d="M248.00,571 V690" stroke="#777" stroke-dasharray="4 4"/>
<text x="30.00" y="604.00" font-size="14">Engine steps</text>
<rect x="185.00" y="582.00" width="19.87" height="28" fill="#4185c4"/>
<rect x="204.88" y="582.00" width="21.95" height="28" fill="#4185c4"/>
<rect x="226.83" y="582.00" width="21.94" height="28" fill="#4185c4"/>
<rect x="248.91" y="582.00" width="63.34" height="28" fill="#8961bd"/>
<rect x="312.27" y="582.00" width="66.81" height="28" fill="#8961bd"/>
<rect x="379.08" y="582.00" width="67.50" height="28" fill="#8961bd"/>
<rect x="446.60" y="582.00" width="68.72" height="28" fill="#8961bd"/>
<rect x="515.32" y="582.00" width="69.97" height="28" fill="#8961bd"/>
<rect x="585.31" y="582.00" width="71.30" height="28" fill="#8961bd"/>
<rect x="656.63" y="582.00" width="72.66" height="28" fill="#8961bd"/>
<rect x="729.30" y="582.00" width="74.22" height="28" fill="#8961bd"/>
<rect x="803.55" y="582.00" width="56.60" height="28" fill="#8961bd"/>
<rect x="860.16" y="582.00" width="23.67" height="28" fill="#4185c4"/>
<rect x="883.85" y="582.00" width="23.57" height="28" fill="#4185c4"/>
<rect x="907.43" y="582.00" width="23.51" height="28" fill="#4185c4"/>
<rect x="930.95" y="582.00" width="23.50" height="28" fill="#4185c4"/>
<rect x="954.46" y="582.00" width="23.53" height="28" fill="#4185c4"/>
<rect x="978.00" y="582.00" width="23.49" height="28" fill="#4185c4"/>
<rect x="1001.50" y="582.00" width="23.49" height="28" fill="#4185c4"/>
<rect x="1024.99" y="582.00" width="23.53" height="28" fill="#4185c4"/>
<rect x="1048.54" y="582.00" width="23.51" height="28" fill="#4185c4"/>
<rect x="1072.06" y="582.00" width="23.51" height="28" fill="#4185c4"/>
<rect x="1095.58" y="582.00" width="23.52" height="28" fill="#4185c4"/>
<rect x="1119.11" y="582.00" width="10.89" height="28" fill="#4185c4"/>
<text x="30.00" y="644.00" font-size="14">A outputs</text>
<rect x="204.87" y="623.00" width="1.80" height="25" fill="#23845d"/>
<rect x="226.82" y="623.00" width="1.80" height="25" fill="#23845d"/>
<rect x="248.77" y="623.00" width="1.80" height="25" fill="#23845d"/>
<rect x="312.25" y="623.00" width="1.80" height="25" fill="#23845d"/>
<rect x="379.07" y="623.00" width="1.80" height="25" fill="#23845d"/>
<rect x="446.58" y="623.00" width="1.80" height="25" fill="#23845d"/>
<rect x="515.31" y="623.00" width="1.80" height="25" fill="#23845d"/>
<rect x="585.30" y="623.00" width="1.80" height="25" fill="#23845d"/>
<rect x="656.61" y="623.00" width="1.80" height="25" fill="#23845d"/>
<rect x="729.29" y="623.00" width="1.80" height="25" fill="#23845d"/>
<rect x="803.53" y="623.00" width="1.80" height="25" fill="#23845d"/>
<rect x="860.15" y="623.00" width="1.80" height="25" fill="#23845d"/>
<rect x="883.84" y="623.00" width="1.80" height="25" fill="#23845d"/>
<rect x="907.42" y="623.00" width="1.80" height="25" fill="#23845d"/>
<rect x="930.94" y="623.00" width="1.80" height="25" fill="#23845d"/>
<rect x="954.45" y="623.00" width="1.80" height="25" fill="#23845d"/>
<rect x="977.98" y="623.00" width="1.80" height="25" fill="#23845d"/>
<rect x="1001.49" y="623.00" width="1.80" height="25" fill="#23845d"/>
<rect x="1024.98" y="623.00" width="1.80" height="25" fill="#23845d"/>
<rect x="1048.52" y="623.00" width="1.80" height="25" fill="#23845d"/>
<rect x="1072.05" y="623.00" width="1.80" height="25" fill="#23845d"/>
<rect x="1095.57" y="623.00" width="1.80" height="25" fill="#23845d"/>
<rect x="1119.10" y="623.00" width="1.80" height="25" fill="#23845d"/>
<path d="M729.29,654 V664 H803.53 V654" fill="none" stroke="#c93939" stroke-width="2"/>
<text x="741.41" y="685.00" font-size="12">58.9 ms</text>
<text x="30.00" y="766.00" font-size="13">Mixed also skips unused partial-prefill logits/sampling. One small trace; no population p95/p99 claim.</text>
</g>
</svg>